<mxfile host="65bd71144e">
    <diagram id="pIsPSVw4wNhW4OB5O9Dt" name="Page-1">
        <mxGraphModel dx="1107" dy="685" grid="1" gridSize="10" guides="1" tooltips="1" connect="1" arrows="1" fold="1" page="1" pageScale="1" pageWidth="850" pageHeight="1100" math="0" shadow="0">
            <root>
                <mxCell id="0"/>
                <mxCell id="1" parent="0"/>
                <mxCell id="165" value="std::exception" style="rounded=0;whiteSpace=wrap;html=1;shadow=1;fontFamily=Lucida Console;" parent="1" vertex="1">
                    <mxGeometry width="160" height="40" as="geometry"/>
                </mxCell>
                <mxCell id="171" style="edgeStyle=orthogonalEdgeStyle;rounded=0;orthogonalLoop=1;jettySize=auto;html=1;exitX=0.5;exitY=0;exitDx=0;exitDy=0;endArrow=block;endFill=0;entryX=0.5;entryY=1;entryDx=0;entryDy=0;" parent="1" source="168" target="165" edge="1">
                    <mxGeometry relative="1" as="geometry">
                        <mxPoint x="80" y="60" as="targetPoint"/>
                        <Array as="points"/>
                    </mxGeometry>
                </mxCell>
                <mxCell id="168" value="SolError" style="rounded=0;whiteSpace=wrap;html=1;shadow=1;fontFamily=Lucida Console;" parent="1" vertex="1">
                    <mxGeometry y="120" width="160" height="40" as="geometry"/>
                </mxCell>
                <mxCell id="183" style="edgeStyle=orthogonalEdgeStyle;rounded=0;orthogonalLoop=1;jettySize=auto;html=1;exitX=0.5;exitY=0;exitDx=0;exitDy=0;entryX=0.5;entryY=1;entryDx=0;entryDy=0;fontFamily=Lucida Console;endArrow=block;endFill=0;" parent="1" source="182" target="168" edge="1">
                    <mxGeometry relative="1" as="geometry"/>
                </mxCell>
                <mxCell id="182" value="VulkanError" style="rounded=0;whiteSpace=wrap;html=1;shadow=1;fontFamily=Lucida Console;" parent="1" vertex="1">
                    <mxGeometry y="240" width="160" height="40" as="geometry"/>
                </mxCell>
                <mxCell id="186" style="edgeStyle=orthogonalEdgeStyle;rounded=0;orthogonalLoop=1;jettySize=auto;html=1;exitX=0.5;exitY=0;exitDx=0;exitDy=0;fontFamily=Lucida Console;endArrow=none;endFill=0;" parent="1" source="185" edge="1">
                    <mxGeometry relative="1" as="geometry">
                        <mxPoint x="80" y="200" as="targetPoint"/>
                        <Array as="points">
                            <mxPoint x="280" y="200"/>
                        </Array>
                    </mxGeometry>
                </mxCell>
                <mxCell id="185" value="&amp;lt;etc&amp;gt;" style="rounded=0;whiteSpace=wrap;html=1;shadow=1;fontFamily=Lucida Console;" parent="1" vertex="1">
                    <mxGeometry x="200" y="240" width="160" height="40" as="geometry"/>
                </mxCell>
                <mxCell id="188" style="edgeStyle=orthogonalEdgeStyle;rounded=0;orthogonalLoop=1;jettySize=auto;html=1;exitX=0.5;exitY=0;exitDx=0;exitDy=0;entryX=0.5;entryY=1;entryDx=0;entryDy=0;endArrow=block;endFill=0;" edge="1" parent="1" source="187" target="182">
                    <mxGeometry relative="1" as="geometry"/>
                </mxCell>
                <mxCell id="187" value="&amp;lt;etc&amp;gt;" style="rounded=0;whiteSpace=wrap;html=1;shadow=1;fontFamily=Lucida Console;" vertex="1" parent="1">
                    <mxGeometry y="360" width="160" height="40" as="geometry"/>
                </mxCell>
            </root>
        </mxGraphModel>
    </diagram>
</mxfile>